<svg width="76" height="32" viewBox="0 0 76 32" fill="none" xmlns="http://www.w3.org/2000/svg">
<path d="M27.3334 8.00008H24.6667V26.6667C24.6667 28.1334 25.8667 29.3334 27.3334 29.3334H46.0001V26.6667H27.3334V8.00008ZM48.6667 2.66675H32.6667C31.2001 2.66675 30.0001 3.86675 30.0001 5.33341V21.3334C30.0001 22.8001 31.2001 24.0001 32.6667 24.0001H48.6667C50.1334 24.0001 51.3334 22.8001 51.3334 21.3334V5.33341C51.3334 3.86675 50.1334 2.66675 48.6667 2.66675ZM47.3334 14.6667H42.0001V20.0001H39.3334V14.6667H34.0001V12.0001H39.3334V6.66675H42.0001V12.0001H47.3334V14.6667Z" fill="#B7B7B7"/>
<circle r="3" transform="matrix(1 0 0 -1 17 19)" fill="#C4C4C4"/>
<circle r="3" transform="matrix(1 0 0 -1 3 19)" fill="#C4C4C4"/>
<circle r="3" transform="matrix(1 0 0 -1 10 19)" fill="#C4C4C4"/>
<circle r="3" transform="matrix(1 0 0 -1 73 19)" fill="#C4C4C4"/>
<circle r="3" transform="matrix(1 0 0 -1 59 19)" fill="#C4C4C4"/>
<circle r="3" transform="matrix(1 0 0 -1 66 19)" fill="#C4C4C4"/>
</svg>
