<svg width="40" height="28" viewBox="0 0 40 28" fill="none" xmlns="http://www.w3.org/2000/svg">
<path d="M38.519 0H13.4252C13.0472 0 12.6847 0.150462 12.4174 0.418265C12.1501 0.686068 12 1.0493 12 1.42803V13.4004C12 13.7791 12.1501 14.1424 12.4174 14.4102C12.6847 14.678 13.0472 14.8284 13.4252 14.8284H18.5746V26.572C18.5746 26.9507 18.7248 27.3139 18.992 27.5817C19.2593 27.8495 19.6218 28 19.9998 28H31.9483C32.1352 28 32.3204 27.963 32.4931 27.8912C32.6657 27.8194 32.8226 27.7141 32.9546 27.5815C33.0867 27.4488 33.1912 27.2914 33.2624 27.1182C33.3336 26.9449 33.37 26.7593 33.3695 26.572V14.8284H38.519C38.8969 14.8284 39.2594 14.678 39.5267 14.4102C39.794 14.1424 39.9441 13.7791 39.9441 13.4004V1.42803C39.9441 1.0493 39.794 0.686068 39.5267 0.418265C39.2594 0.150462 38.8969 0 38.519 0ZM13.6535 1.65681H25.1453V13.1716H13.6535V1.65681ZM31.7199 26.3432H20.2242V14.8284H31.7199V26.3432ZM38.2985 13.1716H0L26.7988 1.65681H38.2985V13.1716Z" fill="white"/>
</svg>
